<svg width="175" height="59" viewBox="0 0 175 59" fill="none" xmlns="http://www.w3.org/2000/svg">
<g clip-path="url(#clip0_2112_9)">
<path d="M54.0166 15.4V38.7333H45.3832V15.6333C45.3832 11.7833 42.2332 8.74997 38.4999 8.74997C34.7666 8.74997 31.4999 11.7833 31.4999 15.6333V38.6166H22.6332V15.5166C22.6332 11.7833 19.5999 8.74997 15.8666 8.74997C12.1332 8.74997 8.98324 11.6666 8.98324 15.5166V38.7333H-0.350098V-0.116699H8.98324V1.51663C10.9666 0.583301 13.2999 -3.25543e-05 15.6332 -3.25543e-05C18.0832 -3.25543e-05 20.5332 0.583301 22.5166 1.6333C24.2666 2.56663 25.7832 3.7333 27.0666 5.24997C28.2332 3.84997 29.7499 2.6833 31.3832 1.86663C33.7166 0.699967 36.1666 -3.25543e-05 38.7332 -3.25543e-05C41.1832 -3.25543e-05 43.3999 0.583301 45.3832 1.51663C50.5166 4.0833 54.0166 9.3333 54.0166 15.4Z" fill="#126977"/>
<path d="M111.3 15.9833C112.7 12.25 116.317 9.44997 120.75 9.09997V-0.116699C116.9 -3.25543e-05 113.517 1.39997 111.067 3.49997V-0.116699H102.2V38.6166H111.067V17.0333C111.067 16.6833 111.184 16.3333 111.3 15.9833Z" fill="#126977"/>
<path d="M161.117 25.7834C158.433 33.2501 151.433 38.5001 143.15 38.5001C132.65 38.5001 124.017 29.9834 124.017 19.3667C124.017 8.75006 132.533 0.233398 143.15 0.233398C151.083 0.233398 157.967 5.1334 160.767 12.0167L152.367 15.2834C150.85 11.5501 147.233 8.86673 142.917 8.86673C137.317 8.86673 132.883 13.4167 132.883 18.9001C132.883 24.3834 137.433 28.9334 142.917 28.9334C147.233 28.9334 150.967 26.1334 152.367 22.2834L161.117 25.7834Z" fill="#126977"/>
<path d="M170.683 38.0332C173.067 38.0332 175 36.1006 175 33.7166C175 31.3325 173.067 29.3999 170.683 29.3999C168.299 29.3999 166.366 31.3325 166.366 33.7166C166.366 36.1006 168.299 38.0332 170.683 38.0332Z" fill="#126977"/>
<path d="M88.317 2.91667C85.4003 1.05 81.9003 0 78.167 0C67.5503 0 58.917 8.63333 58.917 19.25C58.917 29.8667 67.5503 38.5 78.167 38.5C81.9003 38.5 85.4003 37.45 88.4337 35.5833V38.5H97.3003V17.0333C96.6003 11.0833 93.217 5.95 88.317 2.91667ZM78.2837 29.05C72.6837 29.05 68.2503 24.5 68.2503 19.0167C68.2503 13.5333 72.8003 8.98333 78.2837 8.98333C83.767 8.98333 88.317 13.5333 88.317 19.0167C88.317 24.5 83.767 29.05 78.2837 29.05Z" fill="#126977"/>
<path d="M6.0666 58.3334C4.19993 58.3334 2.68327 57.7501 1.5166 56.5834C0.349935 55.4168 -0.233398 53.9001 -0.233398 52.1501C-0.233398 50.4001 0.349935 48.8834 1.5166 47.7168C2.68327 46.5501 4.19993 45.8501 6.0666 45.8501C7.69993 45.8501 9.09993 46.4334 10.1499 47.4834C11.1999 48.5334 11.7833 50.0501 11.7833 51.9168V52.3834H1.63327C1.63327 53.6668 2.09993 54.7168 2.9166 55.5334C3.73327 56.3501 4.78327 56.8168 6.18327 56.8168C7.1166 56.8168 7.93327 56.5834 8.5166 56.2334C9.09993 55.8834 9.68327 55.3001 10.1499 54.4834L11.5499 55.4168C10.3833 57.4001 8.5166 58.3334 6.0666 58.3334ZM1.74993 50.8668H10.0333C9.9166 49.8168 9.44993 48.8834 8.74993 48.3001C8.04993 47.7168 7.1166 47.3668 6.0666 47.3668C5.0166 47.3668 4.08327 47.7168 3.2666 48.3001C2.44993 48.8834 1.98327 49.8168 1.74993 50.8668Z" fill="black"/>
<path d="M19.7165 58.3334C18.5498 58.3334 17.6165 58.1001 16.7998 57.5168C15.9831 57.0501 15.3998 56.2334 15.0498 55.3001L16.5665 54.7168C16.7998 55.4168 17.1498 55.8834 17.7331 56.2334C18.3165 56.5834 19.0165 56.8168 19.7165 56.8168C20.4165 56.8168 20.9998 56.7001 21.3498 56.3501C21.8165 56.0001 22.0498 55.5334 22.0498 54.9501C22.0498 54.4834 21.9331 54.0168 21.5831 53.7834C21.2331 53.4334 20.6498 53.2001 19.8331 52.8501L18.5498 52.3834C16.5665 51.8001 15.6331 50.6334 15.6331 49.0001C15.6331 48.0668 15.9831 47.2501 16.7998 46.6668C17.6165 46.0834 18.5498 45.8501 19.7165 45.8501C21.5831 45.8501 22.8665 46.5501 23.6831 47.9501L22.1665 48.7668C21.4665 47.8334 20.6498 47.2501 19.4831 47.2501C18.8998 47.2501 18.3165 47.3668 17.9665 47.7168C17.4998 48.0668 17.2665 48.4168 17.2665 48.8834C17.2665 49.8168 17.8498 50.4001 19.1331 50.8668L20.5331 51.3334C22.6331 52.0334 23.7998 53.2001 23.7998 54.8334C23.7998 56.0001 23.4498 56.8168 22.6331 57.4001C21.9331 57.9834 20.8831 58.3334 19.7165 58.3334Z" fill="black"/>
<path d="M32.9 58.2168C31.85 58.2168 31.0334 57.8668 30.45 57.2835C29.75 56.7002 29.4 55.7668 29.4 54.7168V47.6002H26.3667V45.9668H29.4V42.5835H31.15V45.9668H34.8834V47.6002H31.15V54.6002C31.15 55.3002 31.3834 55.8835 31.7334 56.2335C32.0834 56.5835 32.55 56.7002 33.1334 56.7002C33.8334 56.7002 34.4167 56.5835 34.8834 56.2335L35.35 57.6335C34.65 57.9835 33.8334 58.2168 32.9 58.2168Z" fill="black"/>
<path d="M43.8669 58.3334C42.1169 58.3334 40.6003 57.7501 39.4336 56.4667C38.2669 55.1834 37.6836 53.7834 37.6836 52.0334C37.6836 50.2834 38.2669 48.7667 39.4336 47.6001C40.6003 46.4334 42.0003 45.7334 43.8669 45.7334C45.6169 45.7334 47.0169 46.3167 48.0669 47.4834V45.9667H49.8169V58.1001H48.0669V56.5834C47.0169 57.7501 45.6169 58.3334 43.8669 58.3334ZM43.9836 56.8167C44.9169 56.8167 45.7336 56.5834 46.4336 56.2334C47.1336 55.8834 47.7169 55.3001 48.0669 54.6001V49.5834C47.7169 48.8834 47.1336 48.4167 46.4336 47.9501C45.7336 47.6001 44.9169 47.3667 43.9836 47.3667C42.7003 47.3667 41.6503 47.8334 40.8336 48.7667C40.0169 49.7001 39.5503 50.7501 39.5503 52.1501C39.5503 53.4334 40.0169 54.6001 40.8336 55.5334C41.5336 56.3501 42.7003 56.8167 43.9836 56.8167Z" fill="black"/>
<path d="M59.9669 58.2168C58.9169 58.2168 58.1003 57.8668 57.5169 57.2835C56.8169 56.7002 56.4669 55.7668 56.4669 54.7168V47.6002H53.4336V45.9668H56.4669V42.5835H58.2169V45.9668H61.9503V47.6002H58.2169V54.6002C58.2169 55.3002 58.4503 55.8835 58.8003 56.2335C59.1503 56.5835 59.6169 56.7002 60.2003 56.7002C60.9003 56.7002 61.4836 56.5835 61.9503 56.2335L62.4169 57.6335C61.7169 57.9835 60.9003 58.2168 59.9669 58.2168Z" fill="black"/>
<path d="M71.05 58.3334C69.1833 58.3334 67.6667 57.7501 66.5 56.5834C65.3333 55.4168 64.75 53.9001 64.75 52.1501C64.75 50.4001 65.3333 48.8834 66.5 47.7168C67.6667 46.5501 69.1833 45.8501 71.05 45.8501C72.6833 45.8501 74.0833 46.4334 75.1333 47.4834C76.1833 48.5334 76.7667 50.0501 76.7667 51.9168V52.3834H66.6167C66.6167 53.6668 67.0833 54.7168 67.9 55.5334C68.7167 56.3501 69.7667 56.8168 71.1667 56.8168C72.1 56.8168 72.9167 56.5834 73.5 56.2334C74.0833 55.8834 74.6667 55.3001 75.1333 54.4834L76.5333 55.4168C75.25 57.4001 73.5 58.3334 71.05 58.3334ZM66.7333 50.8668H75.0167C74.9 49.8168 74.4333 48.8834 73.7333 48.3001C73.0333 47.7168 72.1 47.3668 71.05 47.3668C70 47.3668 69.0667 47.7168 68.25 48.3001C67.4333 48.8834 66.9667 49.8168 66.7333 50.8668Z" fill="black"/>
</g>
<defs>
<clipPath id="clip0_2112_9">
<rect width="175" height="58.3333" fill="white"/>
</clipPath>
</defs>
</svg>
