<svg width="126" height="50" viewBox="0 0 126 50" fill="none" xmlns="http://www.w3.org/2000/svg">
<path d="M4.80001 50C3.50002 50 2.40002 49.6 1.60002 48.7C0.800023 47.8 0.400024 46.8 0.400024 45.5C0.400024 44.2 0.800023 43.2 1.70002 42.3C2.50002 41.5 3.60001 41 4.90001 41C6.10001 41 7 41.4 7.8 42.2C8.5 43 8.9 44 8.9 45.4V45.7H1.60002C1.60002 46.6 1.90002 47.3 2.50002 48C3.10002 48.6 3.90001 48.9 4.80001 48.9C5.50001 48.9 6.10001 48.8 6.50001 48.5C6.9 48.2 7.3 47.8 7.6 47.3L8.6 47.9C7.8 49.3 6.60001 50 4.80001 50ZM1.70002 44.6H7.6C7.5 43.8 7.2 43.2 6.7 42.8C6.20001 42.4 5.50001 42.1 4.80001 42.1C4.10001 42.1 3.40002 42.3 2.80002 42.8C2.20002 43.3 1.90002 43.9 1.70002 44.6Z" fill="black"/>
<path d="M14.4999 50C13.6999 50 12.9999 49.8 12.3999 49.5C11.7999 49.1 11.4 48.6 11.2 47.9L12.2999 47.5C12.3999 48 12.6999 48.3 13.1999 48.6C13.5999 48.9 14.0999 49 14.5999 49C15.0999 49 15.4999 48.9 15.7999 48.6C16.0999 48.4 16.2999 48 16.2999 47.6C16.2999 47.3 16.1999 47 15.8999 46.7C15.6999 46.5 15.1999 46.2 14.5999 46.1L13.6999 45.8C12.2999 45.4 11.6 44.6 11.6 43.3C11.6 42.6 11.8999 42 12.3999 41.6C12.8999 41.2 13.5999 41 14.4999 41C15.7999 41 16.6999 41.5 17.2999 42.5L16.2999 43.1C15.7999 42.4 15.1999 42 14.3999 42C13.9999 42 13.5999 42.1 13.2999 42.3C12.9999 42.5 12.7999 42.8 12.7999 43.1C12.7999 43.7 13.1999 44.2 14.0999 44.5L15.0999 44.8C16.5999 45.3 17.3999 46.1 17.3999 47.3C17.3999 48.1 17.0999 48.7 16.5999 49.2C16.0999 49.8 15.3999 50 14.4999 50Z" fill="black"/>
<path d="M23.9999 49.8999C23.2999 49.8999 22.6999 49.6999 22.1999 49.2999C21.6999 48.8999 21.4999 48.2999 21.4999 47.4999V42.3999H19.2999V41.2999H21.4999V38.8999H22.6999V41.2999H25.3999V42.3999H22.6999V47.3999C22.6999 47.8999 22.7999 48.2999 23.0999 48.4999C23.3999 48.6999 23.6999 48.8999 24.0999 48.8999C24.5999 48.8999 24.9999 48.7999 25.3999 48.5999L25.7999 49.5999C25.1999 49.7999 24.5999 49.8999 23.9999 49.8999Z" fill="black"/>
<path d="M31.8 50C30.5 50 29.5 49.6 28.7 48.7C27.9 47.8 27.5 46.8 27.5 45.5C27.5 44.2 27.9 43.2 28.7 42.3C29.5 41.5 30.5 41 31.8 41C33.1 41 34.1 41.4 34.8 42.2V41.1H36V49.7H34.8V48.6C34 49.6 33 50 31.8 50ZM31.8 48.9C32.5 48.9 33.1 48.8 33.6 48.5C34.1 48.2 34.5 47.8 34.8 47.4V43.8C34.5 43.3 34.1 42.9 33.6 42.7C33.1 42.4 32.5 42.3 31.8 42.3C30.9 42.3 30.1 42.6 29.5 43.3C28.9 44 28.6 44.7 28.6 45.7C28.6 46.6 28.9 47.4 29.5 48.1C30.1 48.6 30.9 48.9 31.8 48.9Z" fill="black"/>
<path d="M43.2998 49.8999C42.5998 49.8999 41.9998 49.6999 41.4998 49.2999C40.9998 48.8999 40.7998 48.2999 40.7998 47.4999V42.3999H38.5999V41.2999H40.7998V38.8999H41.9998V41.2999H44.6998V42.3999H41.9998V47.3999C41.9998 47.8999 42.0998 48.2999 42.3998 48.4999C42.6998 48.6999 42.9998 48.8999 43.3998 48.8999C43.8998 48.8999 44.2998 48.7999 44.6998 48.5999L45.0998 49.5999C44.4998 49.7999 43.9998 49.8999 43.2998 49.8999Z" fill="black"/>
<path d="M51.1998 50C49.8998 50 48.7998 49.6 47.9998 48.7C47.1998 47.8 46.7998 46.8 46.7998 45.5C46.7998 44.2 47.1998 43.2 48.0998 42.3C48.8998 41.4 49.9998 41 51.2998 41C52.4998 41 53.3998 41.4 54.1998 42.2C54.9998 43 55.3998 44 55.3998 45.4V45.7H48.0998C48.0998 46.6 48.3998 47.3 48.9998 48C49.5998 48.6 50.3998 48.9 51.2998 48.9C51.9998 48.9 52.5998 48.8 52.9998 48.5C53.3998 48.2 53.7998 47.8 54.0998 47.3L55.0998 47.9C54.1998 49.3 52.8998 50 51.1998 50ZM48.0998 44.6H53.9998C53.8998 43.8 53.5998 43.2 53.0998 42.8C52.5998 42.4 51.8998 42.1 51.1998 42.1C50.4998 42.1 49.7998 42.3 49.1998 42.8C48.5998 43.3 48.1998 43.9 48.0998 44.6Z" fill="black"/>
<path d="M38.9999 19.2998V35.9997H32.7999V19.4998C32.7999 16.7998 30.5999 14.4998 27.7999 14.4998C24.9999 14.4998 22.7999 16.6998 22.7999 19.4998V35.9997H16.3999V19.3998C16.3999 16.6998 14.2 14.4998 11.5 14.4998C8.79997 14.4998 6.59998 16.6998 6.59998 19.3998V35.9997H0V8.2998H6.59998V9.4998C7.99997 8.7998 9.69997 8.3998 11.4 8.3998C13.2 8.3998 14.9 8.7998 16.3999 9.5998C17.5999 10.1998 18.7999 11.0998 19.6999 12.0998C20.5999 11.0998 21.5999 10.2998 22.7999 9.6998C24.2999 8.8998 26.0999 8.3998 27.8999 8.3998C29.5999 8.3998 31.1999 8.7998 32.6999 9.4998C36.4999 11.2998 38.9999 14.9998 38.9999 19.2998Z" fill="#bd9968"/>
<path d="M79.8998 19.7998C80.8998 17.0998 83.4997 15.1998 86.6997 14.8998V8.2998C83.8997 8.3998 81.4998 9.3998 79.7998 10.7998V8.2998H73.3998V35.9997H79.7998V20.5998C79.7998 20.2998 79.7998 19.9998 79.8998 19.7998Z" fill="#bd9968"/>
<path d="M122.3 35.9998C124.012 35.9998 125.4 34.6119 125.4 32.8998C125.4 31.1877 124.012 29.7998 122.3 29.7998C120.588 29.7998 119.2 31.1877 119.2 32.8998C119.2 34.6119 120.588 35.9998 122.3 35.9998Z" fill="#bd9968"/>
<path d="M63.4998 10.6C61.3998 9.3 58.8998 8.5 56.1998 8.5C48.5999 8.5 42.4999 14.7 42.4999 22.2C42.4999 29.7999 48.5999 35.9999 56.1998 35.9999C58.8998 35.9999 61.3998 35.1999 63.4998 33.8999V35.9999H69.8998V20.6C69.3998 16.4 66.9998 12.8 63.4998 10.6ZM56.2998 29.2999C52.2998 29.2999 49.0999 26.0999 49.0999 22.1C49.0999 18.1 52.2998 14.9 56.2998 14.9C60.2998 14.9 63.4998 18.1 63.4998 22.1C63.4998 26.0999 60.2998 29.2999 56.2998 29.2999Z" fill="#bd9968"/>
<path d="M89.8997 0H96.3996V18.5999L105.4 8.59997H113.5L104.2 19.5999L116.3 35.9999H108L99.3996 24.8999L96.6996 26.8999V35.9999H89.8997V0Z" fill="#bd9968"/>
</svg>
