<svg width="180" height="60" viewBox="0 0 180 60" fill="none" xmlns="http://www.w3.org/2000/svg">
<g clip-path="url(#clip0_2112_9)">
<path d="M55.5601 15.8399V39.8399H46.6801V16.0799C46.6801 12.1199 43.4401 8.99988 39.6001 8.99988C35.7601 8.99988 32.4001 12.1199 32.4001 16.0799V39.7199H23.2801V15.9599C23.2801 12.1199 20.1601 8.99988 16.3201 8.99988C12.4801 8.99988 9.24014 11.9999 9.24014 15.9599V39.8399H-0.359863V-0.120117H9.24014V1.55988C11.2801 0.599883 13.6801 -0.000117181 16.0801 -0.000117181C18.6001 -0.000117181 21.1201 0.599883 23.1601 1.67988C24.9601 2.63988 26.5201 3.83988 27.8401 5.39988C29.0401 3.95988 30.6001 2.75988 32.2801 1.91988C34.6801 0.719883 37.2001 -0.000117181 39.8401 -0.000117181C42.3601 -0.000117181 44.6401 0.599883 46.6801 1.55988C51.9601 4.19988 55.5601 9.59988 55.5601 15.8399Z" fill="#126977"/>
<path d="M114.48 16.4399C115.92 12.5999 119.64 9.71988 124.2 9.35988V-0.120117C120.24 -0.000117181 116.76 1.43988 114.24 3.59988V-0.120117H105.12V39.7199H114.24V17.5199C114.24 17.1599 114.36 16.7999 114.48 16.4399Z" fill="#126977"/>
<path d="M165.721 26.5197C162.961 34.1997 155.761 39.5997 147.241 39.5997C136.441 39.5997 127.561 30.8397 127.561 19.9197C127.561 8.99975 136.321 0.239746 147.241 0.239746C155.401 0.239746 162.481 5.27975 165.361 12.3597L156.721 15.7197C155.161 11.8797 151.441 9.11975 147.001 9.11975C141.241 9.11975 136.681 13.7997 136.681 19.4397C136.681 25.0797 141.361 29.7597 147.001 29.7597C151.441 29.7597 155.281 26.8797 156.721 22.9197L165.721 26.5197Z" fill="#126977"/>
<path d="M175.56 39.1197C178.012 39.1197 180 37.1319 180 34.6797C180 32.2276 178.012 30.2397 175.56 30.2397C173.108 30.2397 171.12 32.2276 171.12 34.6797C171.12 37.1319 173.108 39.1197 175.56 39.1197Z" fill="#126977"/>
<path d="M90.8406 3C87.8406 1.08 84.2406 0 80.4006 0C69.4806 0 60.6006 8.88 60.6006 19.8C60.6006 30.72 69.4806 39.6 80.4006 39.6C84.2406 39.6 87.8406 38.52 90.9606 36.6V39.6H100.081V17.52C99.3606 11.4 95.8806 6.12 90.8406 3ZM80.5206 29.88C74.7606 29.88 70.2006 25.2 70.2006 19.56C70.2006 13.92 74.8806 9.24 80.5206 9.24C86.1606 9.24 90.8406 13.92 90.8406 19.56C90.8406 25.2 86.1606 29.88 80.5206 29.88Z" fill="#126977"/>
<path d="M6.24025 59.9997C4.32025 59.9997 2.76025 59.3997 1.56025 58.1997C0.360254 56.9997 -0.239746 55.4397 -0.239746 53.6397C-0.239746 51.8397 0.360254 50.2797 1.56025 49.0797C2.76025 47.8797 4.32025 47.1597 6.24025 47.1597C7.92025 47.1597 9.36025 47.7597 10.4403 48.8397C11.5203 49.9197 12.1203 51.4797 12.1203 53.3997V53.8797H1.68025C1.68025 55.1997 2.16025 56.2797 3.00025 57.1197C3.84025 57.9597 4.92025 58.4397 6.36025 58.4397C7.32025 58.4397 8.16025 58.1997 8.76025 57.8397C9.36025 57.4797 9.96025 56.8797 10.4403 56.0397L11.8803 56.9997C10.6803 59.0397 8.76025 59.9997 6.24025 59.9997ZM1.80025 52.3197H10.3203C10.2003 51.2397 9.72025 50.2797 9.00025 49.6797C8.28025 49.0797 7.32025 48.7197 6.24025 48.7197C5.16025 48.7197 4.20025 49.0797 3.36025 49.6797C2.52025 50.2797 2.04025 51.2397 1.80025 52.3197Z" fill="black"/>
<path d="M20.2805 59.9997C19.0805 59.9997 18.1205 59.7597 17.2805 59.1597C16.4405 58.6797 15.8405 57.8397 15.4805 56.8797L17.0405 56.2797C17.2805 56.9997 17.6405 57.4797 18.2405 57.8397C18.8405 58.1997 19.5605 58.4397 20.2805 58.4397C21.0005 58.4397 21.6005 58.3197 21.9605 57.9597C22.4405 57.5997 22.6805 57.1197 22.6805 56.5197C22.6805 56.0397 22.5605 55.5597 22.2005 55.3197C21.8405 54.9597 21.2405 54.7197 20.4005 54.3597L19.0805 53.8797C17.0405 53.2797 16.0805 52.0797 16.0805 50.3997C16.0805 49.4397 16.4405 48.5997 17.2805 47.9997C18.1205 47.3997 19.0805 47.1597 20.2805 47.1597C22.2005 47.1597 23.5205 47.8797 24.3605 49.3197L22.8005 50.1597C22.0805 49.1997 21.2405 48.5997 20.0405 48.5997C19.4405 48.5997 18.8405 48.7197 18.4805 49.0797C18.0005 49.4397 17.7605 49.7997 17.7605 50.2797C17.7605 51.2397 18.3605 51.8397 19.6805 52.3197L21.1205 52.7997C23.2805 53.5197 24.4805 54.7197 24.4805 56.3997C24.4805 57.5997 24.1205 58.4397 23.2805 59.0397C22.5605 59.6397 21.4805 59.9997 20.2805 59.9997Z" fill="black"/>
<path d="M33.8401 59.8798C32.7601 59.8798 31.9201 59.5198 31.3201 58.9198C30.6001 58.3198 30.2401 57.3598 30.2401 56.2798V48.9598H27.1201V47.2798H30.2401V43.7998H32.0401V47.2798H35.8801V48.9598H32.0401V56.1598C32.0401 56.8798 32.2801 57.4798 32.6401 57.8398C33.0001 58.1998 33.4801 58.3198 34.0801 58.3198C34.8001 58.3198 35.4001 58.1998 35.8801 57.8398L36.3601 59.2798C35.6401 59.6398 34.8001 59.8798 33.8401 59.8798Z" fill="black"/>
<path d="M45.1198 60C43.3198 60 41.7598 59.4 40.5598 58.08C39.3598 56.76 38.7598 55.32 38.7598 53.52C38.7598 51.72 39.3598 50.16 40.5598 48.96C41.7598 47.76 43.1998 47.04 45.1198 47.04C46.9198 47.04 48.3598 47.64 49.4398 48.84V47.28H51.2398V59.76H49.4398V58.2C48.3598 59.4 46.9198 60 45.1198 60ZM45.2398 58.44C46.1998 58.44 47.0398 58.2 47.7598 57.84C48.4798 57.48 49.0798 56.88 49.4398 56.16V51C49.0798 50.28 48.4798 49.8 47.7598 49.32C47.0398 48.96 46.1998 48.72 45.2398 48.72C43.9198 48.72 42.8398 49.2 41.9998 50.16C41.1598 51.12 40.6798 52.2 40.6798 53.64C40.6798 54.96 41.1598 56.16 41.9998 57.12C42.7198 57.96 43.9198 58.44 45.2398 58.44Z" fill="black"/>
<path d="M61.68 59.8798C60.6 59.8798 59.76 59.5198 59.16 58.9198C58.44 58.3198 58.08 57.3598 58.08 56.2798V48.9598H54.96V47.2798H58.08V43.7998H59.88V47.2798H63.72V48.9598H59.88V56.1598C59.88 56.8798 60.12 57.4798 60.48 57.8398C60.84 58.1998 61.32 58.3198 61.92 58.3198C62.64 58.3198 63.24 58.1998 63.72 57.8398L64.2 59.2798C63.48 59.6398 62.64 59.8798 61.68 59.8798Z" fill="black"/>
<path d="M73.0806 59.9997C71.1606 59.9997 69.6006 59.3997 68.4006 58.1997C67.2006 56.9997 66.6006 55.4397 66.6006 53.6397C66.6006 51.8397 67.2006 50.2797 68.4006 49.0797C69.6006 47.8797 71.1606 47.1597 73.0806 47.1597C74.7606 47.1597 76.2006 47.7597 77.2806 48.8397C78.3606 49.9197 78.9606 51.4797 78.9606 53.3997V53.8797H68.5206C68.5206 55.1997 69.0006 56.2797 69.8406 57.1197C70.6806 57.9597 71.7606 58.4397 73.2006 58.4397C74.1606 58.4397 75.0006 58.1997 75.6006 57.8397C76.2006 57.4797 76.8006 56.8797 77.2806 56.0397L78.7206 56.9997C77.4006 59.0397 75.6006 59.9997 73.0806 59.9997ZM68.6406 52.3197H77.1606C77.0406 51.2397 76.5606 50.2797 75.8406 49.6797C75.1206 49.0797 74.1606 48.7197 73.0806 48.7197C72.0006 48.7197 71.0406 49.0797 70.2006 49.6797C69.3606 50.2797 68.8806 51.2397 68.6406 52.3197Z" fill="black"/>
</g>
<defs>
<clipPath id="clip0_2112_9">
<rect width="180" height="60" fill="white"/>
</clipPath>
</defs>
</svg>
