<svg width="160" height="50" viewBox="0 0 160 50" fill="none" xmlns="http://www.w3.org/2000/svg">
<g clip-path="url(#clip0_2112_9)">
<path d="M49.3868 13.1999V33.1999H41.4935V13.3999C41.4935 10.0999 38.6135 7.4999 35.2002 7.4999C31.7868 7.4999 28.8002 10.0999 28.8002 13.3999V33.0999H20.6935V13.2999C20.6935 10.0999 17.9202 7.4999 14.5068 7.4999C11.0935 7.4999 8.21351 9.9999 8.21351 13.2999V33.1999H-0.319824V-0.100098H8.21351V1.2999C10.0268 0.499902 12.1602 -9.76548e-05 14.2935 -9.76548e-05C16.5335 -9.76548e-05 18.7735 0.499902 20.5868 1.3999C22.1868 2.1999 23.5735 3.1999 24.7468 4.4999C25.8135 3.2999 27.2002 2.2999 28.6935 1.5999C30.8268 0.599902 33.0668 -9.76548e-05 35.4135 -9.76548e-05C37.6535 -9.76548e-05 39.6802 0.499902 41.4935 1.2999C46.1868 3.4999 49.3868 7.9999 49.3868 13.1999Z" fill="#126977"/>
<path d="M101.76 13.6999C103.04 10.4999 106.347 8.0999 110.4 7.7999V-0.100098C106.88 -9.76548e-05 103.787 1.1999 101.547 2.9999V-0.100098H93.4404V33.0999H101.547V14.5999C101.547 14.2999 101.654 13.9999 101.76 13.6999Z" fill="#126977"/>
<path d="M147.307 22.0997C144.853 28.4997 138.453 32.9997 130.88 32.9997C121.28 32.9997 113.387 25.6997 113.387 16.5997C113.387 7.49971 121.173 0.199707 130.88 0.199707C138.133 0.199707 144.427 4.39971 146.987 10.2997L139.307 13.0997C137.92 9.89971 134.613 7.59971 130.667 7.59971C125.547 7.59971 121.493 11.4997 121.493 16.1997C121.493 20.8997 125.653 24.7997 130.667 24.7997C134.613 24.7997 138.027 22.3997 139.307 19.0997L147.307 22.0997Z" fill="#126977"/>
<path d="M156.053 32.5997C158.233 32.5997 160 30.9432 160 28.8997C160 26.8563 158.233 25.1997 156.053 25.1997C153.873 25.1997 152.106 26.8563 152.106 28.8997C152.106 30.9432 153.873 32.5997 156.053 32.5997Z" fill="#126977"/>
<path d="M80.7472 2.5C78.0805 0.9 74.8805 0 71.4672 0C61.7605 0 53.8672 7.4 53.8672 16.5C53.8672 25.6 61.7605 33 71.4672 33C74.8805 33 78.0805 32.1 80.8539 30.5V33H88.9605V14.6C88.3205 9.5 85.2272 5.1 80.7472 2.5ZM71.5739 24.9C66.4539 24.9 62.4005 21 62.4005 16.3C62.4005 11.6 66.5605 7.7 71.5739 7.7C76.5872 7.7 80.7472 11.6 80.7472 16.3C80.7472 21 76.5872 24.9 71.5739 24.9Z" fill="#126977"/>
<path d="M5.54662 49.9998C3.83995 49.9998 2.45329 49.4998 1.38662 48.4998C0.319954 47.4998 -0.213379 46.1998 -0.213379 44.6998C-0.213379 43.1998 0.319954 41.8998 1.38662 40.8998C2.45329 39.8998 3.83995 39.2998 5.54662 39.2998C7.03995 39.2998 8.31995 39.7998 9.27995 40.6998C10.24 41.5998 10.7733 42.8998 10.7733 44.4998V44.8998H1.49329C1.49329 45.9998 1.91995 46.8998 2.66662 47.5998C3.41329 48.2998 4.37329 48.6998 5.65329 48.6998C6.50662 48.6998 7.25329 48.4998 7.78662 48.1998C8.31995 47.8998 8.85329 47.3998 9.27995 46.6998L10.56 47.4998C9.49329 49.1998 7.78662 49.9998 5.54662 49.9998ZM1.59995 43.5998H9.17329C9.06662 42.6998 8.63995 41.8998 7.99995 41.3998C7.35995 40.8998 6.50662 40.5998 5.54662 40.5998C4.58662 40.5998 3.73329 40.8998 2.98662 41.3998C2.23995 41.8998 1.81329 42.6998 1.59995 43.5998Z" fill="black"/>
<path d="M18.0264 49.9998C16.9598 49.9998 16.1064 49.7998 15.3598 49.2998C14.6131 48.8998 14.0798 48.1998 13.7598 47.3998L15.1464 46.8998C15.3598 47.4998 15.6798 47.8998 16.2131 48.1998C16.7464 48.4998 17.3864 48.6998 18.0264 48.6998C18.6664 48.6998 19.1998 48.5998 19.5198 48.2998C19.9464 47.9998 20.1598 47.5998 20.1598 47.0998C20.1598 46.6998 20.0531 46.2998 19.7331 46.0998C19.4131 45.7998 18.8798 45.5998 18.1331 45.2998L16.9598 44.8998C15.1464 44.3998 14.2931 43.3998 14.2931 41.9998C14.2931 41.1998 14.6131 40.4998 15.3598 39.9998C16.1064 39.4998 16.9598 39.2998 18.0264 39.2998C19.7331 39.2998 20.9064 39.8998 21.6531 41.0998L20.2664 41.7998C19.6264 40.9998 18.8798 40.4998 17.8131 40.4998C17.2798 40.4998 16.7464 40.5998 16.4264 40.8998C15.9998 41.1998 15.7864 41.4998 15.7864 41.8998C15.7864 42.6998 16.3198 43.1998 17.4931 43.5998L18.7731 43.9998C20.6931 44.5998 21.7598 45.5998 21.7598 46.9998C21.7598 47.9998 21.4398 48.6998 20.6931 49.1998C20.0531 49.6998 19.0931 49.9998 18.0264 49.9998Z" fill="black"/>
<path d="M30.0798 49.9C29.1198 49.9 28.3731 49.6 27.8398 49.1C27.1998 48.6 26.8798 47.8 26.8798 46.9V40.8H24.1064V39.4H26.8798V36.5H28.4798V39.4H31.8931V40.8H28.4798V46.8C28.4798 47.4 28.6931 47.9 29.0131 48.2C29.3331 48.5 29.7598 48.6 30.2931 48.6C30.9331 48.6 31.4664 48.5 31.8931 48.2L32.3198 49.4C31.6798 49.7 30.9331 49.9 30.0798 49.9Z" fill="black"/>
<path d="M40.1065 50.0002C38.5065 50.0002 37.1198 49.5002 36.0531 48.4002C34.9865 47.3002 34.4531 46.1002 34.4531 44.6002C34.4531 43.1002 34.9865 41.8002 36.0531 40.8002C37.1198 39.8002 38.3998 39.2002 40.1065 39.2002C41.7065 39.2002 42.9865 39.7002 43.9465 40.7002V39.4002H45.5465V49.8002H43.9465V48.5002C42.9865 49.5002 41.7065 50.0002 40.1065 50.0002ZM40.2131 48.7002C41.0665 48.7002 41.8131 48.5002 42.4531 48.2002C43.0931 47.9002 43.6265 47.4002 43.9465 46.8002V42.5002C43.6265 41.9002 43.0931 41.5002 42.4531 41.1002C41.8131 40.8002 41.0665 40.6002 40.2131 40.6002C39.0398 40.6002 38.0798 41.0002 37.3331 41.8002C36.5865 42.6002 36.1598 43.5002 36.1598 44.7002C36.1598 45.8002 36.5865 46.8002 37.3331 47.6002C37.9731 48.3002 39.0398 48.7002 40.2131 48.7002Z" fill="black"/>
<path d="M54.8269 49.9C53.8669 49.9 53.1202 49.6 52.5868 49.1C51.9468 48.6 51.6269 47.8 51.6269 46.9V40.8H48.8535V39.4H51.6269V36.5H53.2269V39.4H56.6402V40.8H53.2269V46.8C53.2269 47.4 53.4402 47.9 53.7602 48.2C54.0802 48.5 54.5068 48.6 55.0402 48.6C55.6802 48.6 56.2135 48.5 56.6402 48.2L57.0668 49.4C56.4268 49.7 55.6802 49.9 54.8269 49.9Z" fill="black"/>
<path d="M64.9602 49.9998C63.2535 49.9998 61.8669 49.4998 60.8002 48.4998C59.7335 47.4998 59.2002 46.1998 59.2002 44.6998C59.2002 43.1998 59.7335 41.8998 60.8002 40.8998C61.8669 39.8998 63.2535 39.2998 64.9602 39.2998C66.4535 39.2998 67.7335 39.7998 68.6935 40.6998C69.6535 41.5998 70.1869 42.8998 70.1869 44.4998V44.8998H60.9069C60.9069 45.9998 61.3335 46.8998 62.0802 47.5998C62.8269 48.2998 63.7869 48.6998 65.0669 48.6998C65.9202 48.6998 66.6669 48.4998 67.2002 48.1998C67.7335 47.8998 68.2669 47.3998 68.6935 46.6998L69.9735 47.4998C68.8002 49.1998 67.2002 49.9998 64.9602 49.9998ZM61.0135 43.5998H68.5869C68.4802 42.6998 68.0535 41.8998 67.4135 41.3998C66.7735 40.8998 65.9202 40.5998 64.9602 40.5998C64.0002 40.5998 63.1469 40.8998 62.4002 41.3998C61.6535 41.8998 61.2269 42.6998 61.0135 43.5998Z" fill="black"/>
</g>
<defs>
<clipPath id="clip0_2112_9">
<rect width="160" height="50" fill="white"/>
</clipPath>
</defs>
</svg>
