<svg width="150" height="60" viewBox="0 0 150 60" fill="none" xmlns="http://www.w3.org/2000/svg">
<path d="M5.74167 59.8085C4.18665 59.8085 2.87086 59.3301 1.91392 58.2535C0.956985 57.1769 0.478516 55.9808 0.478516 54.4257C0.478516 52.8707 0.956985 51.6745 2.03354 50.598C2.99048 49.6411 4.30627 49.043 5.86129 49.043C7.2967 49.043 8.37325 49.5214 9.33019 50.4784C10.1675 51.4353 10.646 52.6315 10.646 54.3061V54.665H1.91392C1.91392 55.7415 2.27277 56.5789 2.99048 57.4162C3.70818 58.1339 4.66512 58.4927 5.74167 58.4927C6.57899 58.4927 7.2967 58.3731 7.77517 58.0143C8.25364 57.6554 8.7321 57.1769 9.09096 56.5789L10.2871 57.2966C9.33019 58.9712 7.89478 59.8085 5.74167 59.8085ZM2.03354 53.3492H9.09096C8.97134 52.3922 8.61249 51.6745 8.0144 51.1961C7.41631 50.7176 6.57899 50.3588 5.74167 50.3588C4.90435 50.3588 4.06703 50.598 3.34933 51.1961C2.63163 51.7942 2.27277 52.5119 2.03354 53.3492Z" fill="white"/>
<path d="M17.3445 59.8085C16.3875 59.8085 15.5502 59.5693 14.8325 59.2104C14.1148 58.732 13.6363 58.1339 13.3971 57.2966L14.7129 56.8181C14.8325 57.4162 15.1914 57.775 15.7894 58.1339C16.2679 58.4927 16.866 58.6123 17.4641 58.6123C18.0622 58.6123 18.5406 58.4927 18.8995 58.1339C19.2583 57.8946 19.4976 57.4162 19.4976 56.9377C19.4976 56.5789 19.378 56.22 19.0191 55.8612C18.7799 55.6219 18.1818 55.2631 17.4641 55.1434L16.3875 54.7846C14.7129 54.3061 13.8756 53.3492 13.8756 51.7942C13.8756 50.9568 14.2344 50.2391 14.8325 49.7607C15.4306 49.2822 16.2679 49.043 17.3445 49.043C18.8995 49.043 19.976 49.6411 20.6937 50.8372L19.4976 51.5549C18.8995 50.7176 18.1818 50.2391 17.2248 50.2391C16.7464 50.2391 16.2679 50.3588 15.9091 50.598C15.5502 50.8372 15.311 51.1961 15.311 51.5549C15.311 52.2726 15.7894 52.8707 16.866 53.2296L18.0622 53.5884C19.8564 54.1865 20.8134 55.1434 20.8134 56.5789C20.8134 57.5358 20.4545 58.2535 19.8564 58.8516C19.2583 59.5693 18.421 59.8085 17.3445 59.8085Z" fill="white"/>
<path d="M28.7081 59.6891C27.8707 59.6891 27.153 59.4499 26.555 58.9714C25.9569 58.493 25.7176 57.7753 25.7176 56.8183V50.7179H23.0861V49.4021H25.7176V46.5312H27.153V49.4021H30.3827V50.7179H27.153V56.6987C27.153 57.2968 27.2727 57.7753 27.6315 58.0145C27.9904 58.2537 28.3492 58.493 28.8277 58.493C29.4258 58.493 29.9042 58.3734 30.3827 58.1341L30.8612 59.3303C30.1435 59.5695 29.4258 59.6891 28.7081 59.6891Z" fill="white"/>
<path d="M38.0383 59.8085C36.4833 59.8085 35.2871 59.3301 34.3302 58.2535C33.3732 57.1769 32.8948 55.9808 32.8948 54.4257C32.8948 52.8707 33.3732 51.6745 34.3302 50.598C35.2871 49.6411 36.4833 49.043 38.0383 49.043C39.5933 49.043 40.7895 49.5214 41.6268 50.4784V49.1626H43.0622V59.4497H41.6268V58.1339C40.6699 59.33 39.4737 59.8085 38.0383 59.8085ZM38.0383 58.4927C38.8756 58.4927 39.5933 58.3731 40.1914 58.0143C40.7895 57.6554 41.268 57.1769 41.6268 56.6985V52.3923C41.268 51.7942 40.7895 51.3157 40.1914 51.0765C39.5933 50.7176 38.8756 50.598 38.0383 50.598C36.9618 50.598 36.0048 50.9568 35.2871 51.7942C34.5694 52.6315 34.2106 53.4688 34.2106 54.665C34.2106 55.7415 34.5694 56.6985 35.2871 57.5358C36.0048 58.1339 36.9618 58.4927 38.0383 58.4927Z" fill="white"/>
<path d="M51.7943 59.6891C50.9569 59.6891 50.2392 59.4499 49.6411 58.9714C49.0431 58.493 48.8038 57.7753 48.8038 56.8183V50.7179H46.1722V49.4021H48.8038V46.5312H50.2392V49.4021H53.4689V50.7179H50.2392V56.6987C50.2392 57.2968 50.3588 57.7753 50.7177 58.0145C51.0766 58.2537 51.4354 58.493 51.9139 58.493C52.512 58.493 52.9904 58.3734 53.4689 58.1341L53.9474 59.3303C53.2297 59.5695 52.6316 59.6891 51.7943 59.6891Z" fill="white"/>
<path d="M61.244 59.8085C59.689 59.8085 58.3732 59.3301 57.4162 58.2535C56.4593 57.1769 55.9808 55.9808 55.9808 54.4257C55.9808 52.8707 56.4593 51.6745 57.5359 50.598C58.4928 49.5214 59.8086 49.043 61.3636 49.043C62.799 49.043 63.8756 49.5214 64.8325 50.4784C65.7895 51.4353 66.2679 52.6315 66.2679 54.3061V54.665H57.5359C57.5359 55.7415 57.8947 56.5789 58.6124 57.4162C59.3301 58.1339 60.2871 58.4927 61.3636 58.4927C62.2009 58.4927 62.9186 58.3731 63.3971 58.0143C63.8756 57.6554 64.354 57.1769 64.7129 56.5789L65.9091 57.2966C64.8325 58.9712 63.2775 59.8085 61.244 59.8085ZM57.5359 53.3492H64.5933C64.4737 52.3922 64.1148 51.6745 63.5167 51.1961C62.9186 50.7176 62.0813 50.3588 61.244 50.3588C60.4067 50.3588 59.5694 50.598 58.8517 51.1961C58.1339 51.7942 57.6555 52.5119 57.5359 53.3492Z" fill="white"/>
<path d="M46.6507 23.0861V43.0622H39.2344V23.3254C39.2344 20.0957 36.6029 17.3445 33.2536 17.3445C29.9043 17.3445 27.2727 19.9761 27.2727 23.3254V43.0622H19.6172V23.2057C19.6172 19.9761 16.9856 17.3445 13.756 17.3445C10.5263 17.3445 7.89474 19.9761 7.89474 23.2057V43.0622H0V9.92822H7.89474V11.3636C9.56938 10.5263 11.6029 10.0478 13.6364 10.0478C15.7895 10.0478 17.823 10.5263 19.6172 11.4832C21.0526 12.201 22.488 13.2775 23.5646 14.4737C24.6411 13.2775 25.8373 12.3206 27.2727 11.6029C29.067 10.6459 31.2201 10.0478 33.3732 10.0478C35.4067 10.0478 37.3206 10.5263 39.1148 11.3636C43.6603 13.5167 46.6507 17.9426 46.6507 23.0861Z" fill="#126977"/>
<path d="M95.5742 23.6842C96.7704 20.4545 99.8804 18.1818 103.708 17.823V9.92822C100.359 10.0478 97.4881 11.244 95.4546 12.9187V9.92822H87.7991V43.0622H95.4546V24.6411C95.4546 24.2823 95.4546 23.9234 95.5742 23.6842Z" fill="#126977"/>
<path d="M146.292 43.0623C148.34 43.0623 150 41.4021 150 39.3541C150 37.3062 148.34 35.646 146.292 35.646C144.244 35.646 142.584 37.3062 142.584 39.3541C142.584 41.4021 144.244 43.0623 146.292 43.0623Z" fill="#126977"/>
<path d="M75.9569 12.6794C73.4449 11.1244 70.4545 10.1675 67.2248 10.1675C58.1339 10.1675 50.8373 17.5837 50.8373 26.555C50.8373 35.6459 58.1339 43.0622 67.2248 43.0622C70.4545 43.0622 73.4449 42.1053 75.9569 40.5503V43.0622H83.6124V24.6412C83.0143 19.6172 80.1435 15.311 75.9569 12.6794ZM67.3445 35.0479C62.5598 35.0479 58.732 31.2201 58.732 26.4354C58.732 21.6507 62.5598 17.823 67.3445 17.823C72.1291 17.823 75.9569 21.6507 75.9569 26.4354C75.9569 31.2201 72.1291 35.0479 67.3445 35.0479Z" fill="#126977"/>
<path d="M107.536 0H115.311V22.2488L126.077 10.2871H135.766L124.641 23.445L139.115 43.0622H129.187L118.9 29.7847L115.67 32.177V43.0622H107.536V0Z" fill="#126977"/>
</svg>
