<svg width="394" height="157" viewBox="0 0 394 157" fill="none" xmlns="http://www.w3.org/2000/svg">
<path d="M15.072 157C10.99 157 7.53598 155.744 5.02398 152.918C2.51198 150.092 1.25598 146.952 1.25598 142.87C1.25598 138.788 2.51198 135.648 5.33798 132.822C7.84998 130.31 11.304 128.74 15.386 128.74C19.154 128.74 21.98 129.996 24.492 132.508C26.69 135.02 27.946 138.16 27.946 142.556V143.498H5.02398C5.02398 146.324 5.96598 148.522 7.84998 150.72C9.73398 152.604 12.246 153.546 15.072 153.546C17.27 153.546 19.154 153.232 20.41 152.29C21.666 151.348 22.922 150.092 23.864 148.522L27.004 150.406C24.492 154.802 20.724 157 15.072 157ZM5.33798 140.044H23.864C23.55 137.532 22.608 135.648 21.038 134.392C19.468 133.136 17.27 132.194 15.072 132.194C12.874 132.194 10.676 132.822 8.79198 134.392C6.90798 135.962 5.96598 137.846 5.33798 140.044Z" fill="black"/>
<path d="M45.53 157C43.018 157 40.82 156.372 38.936 155.43C37.052 154.174 35.796 152.604 35.168 150.406L38.622 149.15C38.936 150.72 39.878 151.662 41.448 152.604C42.704 153.546 44.274 153.86 45.844 153.86C47.414 153.86 48.67 153.546 49.612 152.604C50.554 151.976 51.182 150.72 51.182 149.464C51.182 148.522 50.868 147.58 49.926 146.638C49.298 146.01 47.728 145.068 45.844 144.754L43.018 143.812C38.622 142.556 36.424 140.044 36.424 135.962C36.424 133.764 37.366 131.88 38.936 130.624C40.506 129.368 42.704 128.74 45.53 128.74C49.612 128.74 52.438 130.31 54.322 133.45L51.182 135.334C49.612 133.136 47.728 131.88 45.216 131.88C43.96 131.88 42.704 132.194 41.762 132.822C40.82 133.45 40.192 134.392 40.192 135.334C40.192 137.218 41.448 138.788 44.274 139.73L47.414 140.672C52.124 142.242 54.636 144.754 54.636 148.522C54.636 151.034 53.694 152.918 52.124 154.488C50.554 156.372 48.356 157 45.53 157Z" fill="black"/>
<path d="M75.3599 156.686C73.1619 156.686 71.2779 156.058 69.7079 154.802C68.1379 153.546 67.5099 151.662 67.5099 149.15V133.136H60.6019V129.682H67.5099V122.146H71.2779V129.682H79.7559V133.136H71.2779V148.836C71.2779 150.406 71.5919 151.662 72.5339 152.29C73.4759 152.918 74.4179 153.546 75.6739 153.546C77.2439 153.546 78.4999 153.232 79.7559 152.604L81.0119 155.744C79.1279 156.372 77.2439 156.686 75.3599 156.686Z" fill="black"/>
<path d="M99.852 157C95.77 157 92.63 155.744 90.118 152.918C87.606 150.092 86.35 146.952 86.35 142.87C86.35 138.788 87.606 135.648 90.118 132.822C92.63 130.31 95.77 128.74 99.852 128.74C103.934 128.74 107.074 129.996 109.272 132.508V129.054H113.04V156.058H109.272V152.604C106.76 155.744 103.62 157 99.852 157ZM99.852 153.546C102.05 153.546 103.934 153.232 105.504 152.29C107.074 151.348 108.33 150.092 109.272 148.836V137.532C108.33 135.962 107.074 134.706 105.504 134.078C103.934 133.136 102.05 132.822 99.852 132.822C97.026 132.822 94.514 133.764 92.63 135.962C90.746 138.16 89.804 140.358 89.804 143.498C89.804 146.324 90.746 148.836 92.63 151.034C94.514 152.604 97.026 153.546 99.852 153.546Z" fill="black"/>
<path d="M135.962 156.686C133.764 156.686 131.88 156.058 130.31 154.802C128.74 153.546 128.112 151.662 128.112 149.15V133.136H121.204V129.682H128.112V122.146H131.88V129.682H140.358V133.136H131.88V148.836C131.88 150.406 132.194 151.662 133.136 152.29C134.078 152.918 135.02 153.546 136.276 153.546C137.846 153.546 139.102 153.232 140.358 152.604L141.614 155.744C139.73 156.372 138.16 156.686 135.962 156.686Z" fill="black"/>
<path d="M160.768 157C156.686 157 153.232 155.744 150.72 152.918C148.208 150.092 146.952 146.952 146.952 142.87C146.952 138.788 148.208 135.648 151.034 132.822C153.546 129.996 157 128.74 161.082 128.74C164.85 128.74 167.676 129.996 170.188 132.508C172.7 135.02 173.956 138.16 173.956 142.556V143.498H151.034C151.034 146.324 151.976 148.522 153.86 150.72C155.744 152.604 158.256 153.546 161.082 153.546C163.28 153.546 165.164 153.232 166.42 152.29C167.676 151.348 168.932 150.092 169.874 148.522L173.014 150.406C170.188 154.802 166.106 157 160.768 157ZM151.034 140.044H169.56C169.246 137.532 168.304 135.648 166.734 134.392C165.164 133.136 162.966 132.194 160.768 132.194C158.57 132.194 156.372 132.822 154.488 134.392C152.604 135.962 151.348 137.846 151.034 140.044Z" fill="black"/>
<path d="M122.46 60.6015V113.04H102.992V61.2295C102.992 52.7515 96.084 45.5295 87.292 45.5295C78.5 45.5295 71.592 52.4375 71.592 61.2295V113.04H51.496V60.9155C51.496 52.4375 44.588 45.5295 36.11 45.5295C27.632 45.5295 20.724 52.4375 20.724 60.9155V113.04H0V26.0615H20.724V29.8295C25.12 27.6315 30.458 26.3755 35.796 26.3755C41.448 26.3755 46.786 27.6315 51.496 30.1435C55.264 32.0275 59.032 34.8535 61.858 37.9935C64.684 34.8535 67.824 32.3415 71.592 30.4575C76.302 27.9455 81.954 26.3755 87.606 26.3755C92.944 26.3755 97.968 27.6315 102.678 29.8295C114.61 35.4815 122.46 47.0995 122.46 60.6015Z" fill="#126977"/>
<path d="M250.886 62.1715C254.026 53.6935 262.19 47.7275 272.238 46.7855V26.0615C263.446 26.3755 255.91 29.5155 250.572 33.9115V26.0615H230.476V113.04H250.572V64.6835C250.572 63.7415 250.572 62.7995 250.886 62.1715Z" fill="#126977"/>
<path d="M384.022 113.04C389.398 113.04 393.756 108.682 393.756 103.306C393.756 97.9303 389.398 93.5723 384.022 93.5723C378.646 93.5723 374.288 97.9303 374.288 103.306C374.288 108.682 378.646 113.04 384.022 113.04Z" fill="#126977"/>
<path d="M199.39 33.2844C192.796 29.2024 184.946 26.6904 176.468 26.6904C152.604 26.6904 133.45 46.1584 133.45 69.7084C133.45 93.5724 152.604 113.04 176.468 113.04C184.946 113.04 192.796 110.528 199.39 106.446V113.04H219.486V64.6844C217.916 51.4964 210.38 40.1924 199.39 33.2844ZM176.782 92.0024C164.222 92.0024 154.174 81.9544 154.174 69.3944C154.174 56.8344 164.222 46.7864 176.782 46.7864C189.342 46.7864 199.39 56.8344 199.39 69.3944C199.39 81.9544 189.342 92.0024 176.782 92.0024Z" fill="#126977"/>
<path d="M282.286 0H302.696V58.404L330.956 27.004H356.39L327.188 61.544L365.182 113.04H339.12L312.116 78.186L303.638 84.466V113.04H282.286V0Z" fill="#126977"/>
</svg>
